/* XPM */
static char *_666fd8349b94ce7a29165f387fc2b7c[] = {
/* columns rows colors chars-per-pixel */
"64 64 42 1 ",
"  c #8C6B9E",
". c #8D6B9E",
"X c #8C6B9F",
"o c #8D6B9F",
"O c #8C6C9E",
"+ c #8D6C9E",
"@ c #8C6C9F",
"# c #8D6C9F",
"$ c #997FAD",
"% c #76B0DD",
"& c #6FC6F0",
"* c #72C7F1",
"= c #79C8F4",
"- c #79C9F4",
"; c #8682B2",
": c #8B81B3",
"> c #8B82B3",
", c #9C83B0",
"< c #9D86B2",
"1 c #A18AB5",
"2 c #A0AECB",
"3 c #BFBFDA",
"4 c #85CBF8",
"5 c #B8C8E5",
"6 c #B8C9E5",
"7 c #C0C0DB",
"8 c #C0C1DB",
"9 c #CFD7EC",
"0 c #CFD9ED",
"q c #C5E4FA",
"w c #C8E5FB",
"e c #DAEBF5",
"r c #DBEBF5",
"t c #DFEDF6",
"y c #D1E9FC",
"u c #E0EDF6",
"i c #E1F0FD",
"p c #E0F1FE",
"a c #E2F2FF",
"s c #E3F2FF",
"d c gray96",
"f c None",
/* pixels */
"ffffffffffffffffffffffffffffffffffffffffffffffffffffffffffffffff",
"ffffffffffffffffffffffffffffffffffffffffffffffffffffffffffffffff",
"fffffffffffff #####################################fffffffffffff",
"ffffffffffff #######################################ffffffffffff",
"ffffffffffff #800000000000000000000000000000000008##ffffffffffff",
"ffffffffffff##000000000000000000000000000000000000##ffffffffffff",
"ffffffffffff#################################### ###ffffffffffff",
"ffffffffffff########################################ffffffffffff",
"ffffffffffff##444444444444444444444444444444444444##ffffffffffff",
"ffffffffffff##444444444444444444444444444444444444##ffffffffffff",
"ffffffffffff##444444444444444444444444444444444444##ffffffffffff",
"ffffffffffff##444444444444444444444444444444444444##ffffffffffff",
"ffffffffffff##444444rddt44rddddddddddddddddr444444##ffffffffffff",
"ffffffffffff##444444tddt44rddddddddddddddddr444444##ffffffffffff",
"ffffffffffff##444444444444444444444444444444444444##ffffffffffff",
"ffffffffffff##444444444444444444444444444444444444##ffffffffffff",
"ffffffffffff##444444rddu44rddddddddddddddddr444444##ffffffffffff",
"ffffffffffff##444444uddt44rddddddddddddddddr444444##ffffffffffff",
"ffffffffffff##444444444444444444444444444444444444##ffffffffffff",
"ffffffffffff##444444444444444444444444444444444444##ffffffffffff",
"ffffffffffff##444444444444444444444444444444444444##ffffffffffff",
"ffffffffffff# 444444444444444444444444444444444444##ffffffffffff",
"ffffffffffff##44>>444>>444::444::444::444::444>>44##ffffffffffff",
"ffffffffffff##44o 444##444##444##444##444##444 #44##ffffffffffff",
"ffffffffffff##=*##*&&##&&&##&&&##&&&##&&& #&&&##*=##ffffffffffff",
"ffffffffffff##*&;;&&&;;&&&;;&&&;;&&&;;&&&;;&&&;;&&##ffffffffffff",
"ffffffffffff##&&&&&&&&&&&&&&&&&&&&&&&&&&&&&&&&&&&&##ffffffffffff",
"ffffffffffff  %*&&&&&&&&&&&&&&&&&&&&&&&&&&&*&&&&&%##ffffffffffff",
"ffffffffffff ### ###################################ffffffffffff",
"fffffffffffff #################################### fffffffffffff",
"fffffffffffffffffffffffff###offffff####fffffffffffffffffffffffff",
"ffffffffffffffffffffffff ##ffffffffff###ffffffffffffffffffffffff",
"fffffffffffffffffffffff###ffffffffffff ##fffffffffffffffffffffff",
"fffffffffffffffffffff####ffffffffffffff #  fffffffffffffffffffff",
"ffffffffffffffffffff # ffffffffffffffffff###ffffffffffffffffffff",
"fffffffffffffffffff## ffffffffffffffffffff ##fffffffffffffffffff",
"fffffffffffffffff ###ffffffffffffffffffffff###ffffffffffffffffff",
"ffffffffffffffff###fffffffffffffffffffffffff####ffffffffffffffff",
"fffffffffffffff## ffffffffffffffffffffffffffff## fffffffffffffff",
"fffffffffffff####ffffffffffffffffffffffffffffff###ffffffffffffff",
"f##########################ffffffffff #########################f",
"########################### ffffffff ###########################",
" #6qqqqqqqqqwpsyqwpssspyq6##ffffffff #6qqqqqqqqqwpsyqwpspspyq6##",
"##qqqqqqqqqqpsyqwpssssyqqy##ffffffff##qqqqqqqqqwpsyqwpssssyqqy##",
"##qqqqqqqqwpsyqwpssspyqqyp##ffffffff##qqqqqqqqwpsyqwpssspyqqyp##",
"##qqqqqqqwpsyqwpssssyqqyss##ffffffff##qqqqqqqwpsyqwpssspyqqyss##",
"##qqqqqqwpsyqwpssspyqqysss##ffffffff##qqqqqqwpsyqwpssssyqqysss##",
"##qqqqqqpsyqwpssssyqqyssss##ffffffff##qqqqqwppyqwpssssyqqyssss##",
"##qqqqwpsyqwpssssyqqypssss##ffffffff##qqqqwppywwpssssyqqysssss##",
"##qqqwppyqwpssssyqqyssssss##ffffffff##qqqwpsyqwpssssyqqyssssss##",
"##qqwppyqwpssspyqqysssssss##ffffffff##qqwpsyqwpssssyqqypssssss##",
"##qwpsyqwpssssyqqyssssssss##ffffffff##qwppyqwpssssyqqyppssssss##",
"###################,ss1#####ffffffff##################O,pp1#####",
"################  #$90<#####ffffffff################## ,90<#####",
"##000000000000000000000000 #ffffffff##000000000000000000000000##",
"##300000000000000000000008##ffffffff  800000000000000000000008##",
"###########################offffffff ###########################",
"f#########################offffffffffo######################## f",
"ffffffffff##2222##ffffffffffffffffffffffffffff##2222##ffffffffff",
"ffffffffff##2222##ffffffffffffffffffffffffffff##2222##ffffffffff",
"ffffff############### ffffffffffffffffffffo############## ffffff",
"ffffff################ffffffffffffffffffff################ffffff",
"ffffffffffffffffffffffffffffffffffffffffffffffffffffffffffffffff",
"ffffffffffffffffffffffffffffffffffffffffffffffffffffffffffffffff"
};
